<?xml version="1.0" standalone="no"?>
<!DOCTYPE svg PUBLIC "-//W3C//DTD SVG 20010904//EN"
 "http://www.w3.org/TR/2001/REC-SVG-20010904/DTD/svg10.dtd">
<svg version="1.0" xmlns="http://www.w3.org/2000/svg"
 width="1837.000000pt" height="590.000000pt" viewBox="0 0 1837.000000 590.000000"
 preserveAspectRatio="xMidYMid meet">

<g transform="translate(0.000000,590.000000) scale(0.100000,-0.100000)"
fill="#ffff" stroke="none">
<path d="M836 5659 c-137 -20 -271 -119 -318 -236 l-23 -58 0 -2420 0 -2420
22 -55 c50 -122 178 -217 323 -240 88 -13 4738 -13 4835 0 149 21 277 115 328
240 l22 55 0 2420 0 2420 -23 58 c-49 120 -180 215 -327 237 -87 12 -4753 12
-4839 -1z m4109 -944 c20 -19 25 -35 25 -72 0 -46 -80 -875 -86 -881 -1 -2
-43 24 -93 58 -50 33 -98 63 -105 66 -9 3 -107 -102 -273 -293 -344 -395 -615
-713 -669 -782 -99 -127 -233 -190 -379 -178 -139 11 -276 119 -525 417 -159
190 -253 284 -295 294 -35 9 -72 -15 -90 -58 -23 -54 -53 -222 -69 -381 -20
-199 -32 -383 -56 -905 -22 -466 -30 -557 -60 -653 -29 -93 -53 -125 -113
-152 -90 -41 -277 -77 -428 -83 -176 -6 -226 5 -274 61 -34 40 -35 42 -35 131
0 381 117 1609 235 2472 48 348 58 396 104 489 87 177 229 270 427 282 139 9
303 -27 386 -84 69 -47 222 -239 508 -638 249 -348 261 -360 340 -336 32 9 59
36 166 169 71 86 222 271 336 410 115 139 208 258 208 265 0 7 -40 48 -90 92
-84 75 -101 94 -82 95 4 1 201 50 437 109 237 60 452 110 478 110 38 1 53 -4
72 -24z m-224 -1166 c14 -179 70 -541 215 -1409 75 -445 134 -825 132 -850 -3
-38 -8 -48 -37 -67 -89 -60 -174 -65 -518 -28 -257 28 -272 32 -332 100 -16
19 -35 52 -40 72 -8 32 -62 1402 -61 1559 l0 51 296 344 c164 189 302 347 308
351 21 14 28 -10 37 -123z"/>
<path d="M16447 5039 c-526 -58 -914 -435 -999 -970 -9 -61 -13 -211 -13 -554
0 -450 1 -474 23 -573 56 -255 156 -437 330 -604 230 -220 495 -318 859 -318
251 0 473 42 641 120 125 59 269 158 345 239 l67 71 0 560 0 560 -555 0 -555
0 0 -185 0 -185 310 0 310 0 0 -304 0 -305 -37 -31 c-55 -45 -186 -106 -273
-125 -115 -25 -307 -31 -410 -11 -212 40 -385 182 -484 398 -72 157 -85 268
-85 713 0 470 12 561 102 745 93 191 246 316 437 356 167 36 387 1 514 -80
130 -83 225 -259 226 -418 l0 -38 236 0 237 0 -6 113 c-7 135 -24 203 -82 322
-125 258 -384 435 -715 489 -126 20 -314 27 -423 15z"/>
<path d="M7130 3530 l0 -1470 245 0 245 0 0 1075 c0 591 3 1075 8 1075 4 0
192 -484 417 -1075 l410 -1075 170 0 171 0 404 1055 c222 580 407 1055 412
1055 4 0 8 -475 8 -1055 l0 -1055 245 0 245 0 0 1470 0 1470 -314 0 -314 0
-26 -67 c-15 -38 -206 -544 -424 -1126 -219 -582 -402 -1059 -407 -1059 -5 0
-198 507 -429 1126 l-420 1126 -323 0 -323 0 0 -1470z"/>
<path d="M10770 3530 l0 -1470 245 0 245 0 0 1470 0 1470 -245 0 -245 0 0
-1470z"/>
<path d="M11920 3530 l0 -1470 245 0 245 0 0 1075 c0 591 3 1075 8 1075 4 0
192 -484 417 -1075 l410 -1075 170 0 171 0 404 1055 c222 580 407 1055 412
1055 4 0 8 -475 8 -1055 l0 -1055 245 0 245 0 0 1470 0 1470 -314 0 -314 0
-26 -67 c-15 -38 -206 -544 -424 -1126 -219 -582 -402 -1059 -407 -1059 -5 0
-198 507 -429 1126 l-420 1126 -323 0 -323 0 0 -1470z"/>
<path d="M8772 1584 c-58 -29 -90 -65 -124 -140 -21 -45 -23 -64 -23 -209 l0
-160 33 -67 c19 -39 49 -80 70 -98 101 -84 290 -76 390 17 l32 31 0 131 0 131
-125 0 -125 0 0 -25 c0 -25 0 -25 95 -25 l95 0 0 -98 c0 -111 -2 -116 -80
-151 -94 -43 -207 -19 -268 55 -48 57 -62 118 -62 259 0 154 16 211 74 269
111 111 300 65 331 -81 5 -26 12 -33 31 -33 20 0 24 5 24 30 0 69 -74 159
-147 179 -71 20 -164 14 -221 -15z"/>
<path d="M12504 1586 c-56 -26 -91 -65 -126 -142 -21 -44 -23 -64 -23 -204 0
-178 12 -230 71 -299 56 -64 104 -85 199 -85 62 0 89 5 120 21 54 29 99 78
127 138 21 46 23 64 23 220 0 166 -1 171 -28 227 -32 66 -90 120 -146 136 -66
20 -159 15 -217 -12z m182 -31 c53 -16 99 -56 130 -115 16 -30 19 -58 19 -205
0 -163 -1 -173 -26 -220 -15 -30 -42 -62 -68 -80 -38 -27 -51 -30 -115 -30
-95 0 -141 28 -183 112 -26 54 -28 68 -31 195 -3 102 0 150 12 190 21 73 74
134 134 152 61 19 69 19 128 1z"/>
<path d="M13345 1592 c-52 -24 -102 -82 -111 -127 -9 -48 0 -110 21 -141 23
-35 96 -79 174 -105 85 -28 171 -71 195 -98 26 -28 32 -100 12 -138 -38 -75
-166 -105 -264 -63 -60 26 -87 56 -102 111 -9 32 -15 39 -35 39 -21 0 -25 -5
-25 -27 1 -85 79 -161 188 -184 167 -34 312 52 312 185 0 102 -57 154 -238
217 -107 38 -148 62 -167 99 -51 99 27 202 155 204 91 1 164 -54 184 -136 5
-22 12 -28 33 -28 24 0 25 2 20 42 -7 54 -52 116 -102 142 -57 30 -194 34
-250 8z"/>
<path d="M15414 1586 c-56 -26 -91 -65 -126 -142 -21 -44 -23 -64 -23 -204 0
-178 12 -230 71 -299 56 -64 104 -85 199 -85 62 0 89 5 120 21 54 29 99 78
127 138 21 46 23 64 23 220 0 166 -1 171 -28 227 -32 66 -90 120 -146 136 -66
20 -159 15 -217 -12z m182 -31 c53 -16 99 -56 130 -115 16 -30 19 -58 19 -205
0 -163 -1 -173 -26 -220 -15 -30 -42 -62 -68 -80 -38 -27 -51 -30 -115 -30
-95 0 -141 28 -183 112 -26 54 -28 68 -31 195 -3 102 0 150 12 190 21 73 74
134 134 152 61 19 69 19 128 1z"/>
<path d="M7140 1230 l0 -370 25 0 25 0 0 370 0 370 -25 0 -25 0 0 -370z"/>
<path d="M7590 1231 l0 -371 30 0 30 0 2 316 3 315 129 -315 c112 -274 132
-316 150 -316 19 0 38 41 146 306 l125 305 3 -305 2 -306 30 0 30 0 0 371 0
370 -37 -3 -36 -3 -123 -305 c-68 -168 -127 -314 -132 -324 -6 -15 -39 58
-139 305 l-130 324 -42 3 -41 3 0 -370z"/>
<path d="M9970 1230 l0 -370 30 0 30 0 0 170 0 170 115 0 c127 0 164 -10 205
-54 22 -24 26 -40 31 -129 8 -129 20 -157 66 -157 l33 0 -16 26 c-12 18 -19
58 -24 135 -7 119 -17 144 -79 186 l-31 21 34 21 c69 43 97 160 57 246 -40 88
-85 104 -293 105 l-158 0 0 -370z m332 307 c51 -22 78 -68 78 -135 0 -68 -22
-106 -75 -132 -34 -16 -62 -20 -158 -20 l-117 0 0 156 0 156 118 -4 c76 -3
130 -10 154 -21z"/>
<path d="M10820 1230 l0 -370 215 0 215 0 0 25 0 25 -185 0 -185 0 0 155 0
155 160 0 160 0 0 25 0 25 -160 0 -160 0 0 145 0 145 185 0 c178 0 185 1 185
20 0 19 -7 20 -215 20 l-215 0 0 -370z"/>
<path d="M11570 1230 l0 -370 30 0 30 0 0 155 0 155 113 0 c144 0 202 16 250
69 46 51 61 99 54 174 -7 75 -44 133 -107 165 -40 20 -58 22 -207 22 l-163 0
0 -370z m337 307 c51 -27 77 -72 81 -142 3 -50 0 -65 -20 -94 -47 -69 -65 -76
-209 -79 l-129 -4 0 172 0 172 123 -4 c88 -3 131 -9 154 -21z"/>
<path d="M14070 1230 l0 -370 25 0 25 0 0 370 0 370 -25 0 -25 0 0 -370z"/>
<path d="M14440 1580 c0 -19 7 -20 125 -20 l125 0 0 -350 0 -350 30 0 30 0 2
348 3 347 118 3 c109 2 117 4 117 22 0 19 -8 20 -275 20 -268 0 -275 0 -275
-20z"/>
<path d="M16160 1230 l0 -370 30 0 30 0 0 170 0 170 115 0 c127 0 164 -10 205
-54 22 -24 26 -40 31 -129 8 -129 20 -157 66 -157 l33 0 -16 26 c-12 18 -19
58 -24 135 -7 119 -17 144 -79 186 l-31 21 34 21 c69 43 97 160 57 246 -40 88
-85 104 -293 105 l-158 0 0 -370z m332 307 c51 -22 78 -68 78 -135 0 -68 -22
-106 -75 -132 -34 -16 -62 -20 -158 -20 l-117 0 0 156 0 156 118 -4 c76 -3
130 -10 154 -21z"/>
<path d="M17041 1363 l129 -238 0 -132 0 -133 25 0 25 0 0 132 0 131 106 196
c59 108 118 215 131 239 l25 42 -35 0 -34 0 -108 -205 -108 -206 -22 38 c-12
21 -61 113 -109 206 -86 165 -88 167 -120 167 l-34 0 129 -237z"/>
</g>
</svg>
